<svg xmlns="http://www.w3.org/2000/svg" viewBox="0 0 394 80">
  <defs>
    <linearGradient id="a" x1="28.333%" x2="100%" y1="20%" y2="108.333%">
      <stop offset="0%" stop-color="#fff" />
      <stop offset="100%" stop-color="#fff" stop-opacity="0" />
    </linearGradient>
  </defs>
  <path fill="#fff" d="M262 0v80h-18V13l-62 80h-4l-62-80v67H98V0h22l57 74 57-74h28Zm132 0v14h-52v20h47v14h-47v18h52v14h-70V0h70ZM86 0 52 57 18 0H0v80h18V24l31 52h6L86 24v56h18V0H86Z" />
  <path fill="#fff" d="M141 80c15 0 26-12 26-27s-11-27-26-27-26 12-26 27 11 27 26 27Zm0-13c-7 0-12-6-12-14s5-14 12-14 12 6 12 14-5 14-12 14Zm158-14-15-10 15-10V27l-24 16 24 16v-6Z" />
  <path fill="url(#a)" d="M262 0v80h-18V13l-62 80h-4l-62-80v67H98V0h22l57 74 57-74h28Z" />
</svg>
