<svg xmlns="http://www.w3.org/2000/svg" fill="none" viewBox="0 0 283 64">
  <path fill="black" d="M141.04 16c-11.04 0-19 7.2-19 18s8.96 18 20 18c6.67 0 12.55-2.64 16.19-7.09l-7.65-4.42c-2.02 2.21-5.09 3.5-8.54 3.5-4.79 0-8.86-2.5-10.37-6.5h28.02c.22-1.12.35-2.28.35-3.5 0-10.79-7.96-17.99-18-17.99Zm-9.46 14.5c1.25-3.99 4.67-6.5 9.45-6.5 4.79 0 8.21 2.51 9.45 6.5h-18.9Zm117.65-11.5-7.85 20.92-8.15-20.92h-8.7l12.82 33h7.75l12.82-33h-8.69Zm-65.72 33h8.88V16h-8.88v36Zm-19.62-28v6.75h16.88V16h-16.88v6Zm0 21.25h16.88V29.5h-16.88v6Zm102.74-24.75V16h-17.98v36h8.88v-12h9.1v-6h-9.1v-8h9.1Zm-210.9-9-18 27-18-27H0l27.43 41 27.43-41h-10.77Z" />
</svg>
